<svg width="1702" height="1516" viewBox="0 0 1702 1516" fill="none" xmlns="http://www.w3.org/2000/svg">
<path d="M446 0.933505C372 5.60017 296.8 28.9335 232.267 67.2002C166.4 106.4 108.4 164.133 68.8 230C-2.03612e-05 344.267 -17.4667 484 18.6666 630C46.8 743.467 105.6 858.534 195.2 974.667C332.4 1152.8 540.8 1328.8 811.733 1495.2C827.6 1504.93 841.867 1513.6 843.333 1514.27C844.8 1514.93 848.8 1515.47 852.267 1515.2C857.733 1515.07 862 1512.93 884.267 1499.33C1302 1244.27 1572.53 964.4 1666.27 690C1691.2 616.934 1701.73 555.867 1701.87 484C1701.87 443.334 1700.27 424.267 1694 389.867C1666.93 242.933 1576.53 121.467 1442.53 52.1335C1394.27 27.2002 1339.47 10.4002 1282.4 3.3335C1195.47 -7.46649 1094 10.1335 1016 49.3335C980.133 67.4668 951.6 88.2668 921.2 118.533C893.333 146.4 875.467 170 855.067 206.4L851.2 213.333L844.667 201.733C810 138.8 756.4 86.2668 693.067 52.6668C622.8 15.6002 528.267 -4.26649 446 0.933505Z" fill="#ED4897"/>
</svg>
